<svg width="125" height="149" viewBox="0 0 125 149" fill="none" xmlns="http://www.w3.org/2000/svg">
<g filter="url(#filter0_d_363_24)">
<path d="M109.942 54.1577C109.216 54.7247 96.3858 61.9957 96.3858 78.1631C96.3858 96.8634 112.711 103.479 113.2 103.643C113.125 104.046 110.606 112.703 104.592 121.524C99.2299 129.286 93.6294 137.036 85.1096 137.036C76.5897 137.036 74.3971 132.059 64.5617 132.059C54.9769 132.059 51.5689 137.2 43.7758 137.2C35.9827 137.2 30.545 130.017 24.2929 121.196C17.0511 110.838 11.2 94.7463 11.2 79.4736C11.2 54.9768 27.0368 41.9849 42.6231 41.9849C50.9049 41.9849 57.8085 47.4538 63.0081 47.4538C67.9571 47.4538 75.6751 41.6572 85.097 41.6572C88.6678 41.6572 101.498 41.9849 109.942 54.1577ZM80.6241 31.2864C84.5207 26.6365 87.2771 20.1847 87.2771 13.7329C87.2771 12.8382 87.2019 11.9309 87.039 11.2C80.6993 11.4394 73.1567 15.4466 68.6086 20.7518C65.0378 24.8346 61.7051 31.2864 61.7051 37.8265C61.7051 38.8094 61.8679 39.7923 61.9431 40.1073C62.344 40.1829 62.9956 40.2711 63.6471 40.2711C69.3353 40.2711 76.4895 36.4403 80.6241 31.2864Z" fill="#E0EEEC"/>
</g>
<defs>
<filter id="filter0_d_363_24" x="-4.86374e-05" y="0" width="124.4" height="148.4" filterUnits="userSpaceOnUse" color-interpolation-filters="sRGB">
<feFlood flood-opacity="0" result="BackgroundImageFix"/>
<feColorMatrix in="SourceAlpha" type="matrix" values="0 0 0 0 0 0 0 0 0 0 0 0 0 0 0 0 0 0 127 0" result="hardAlpha"/>
<feOffset/>
<feGaussianBlur stdDeviation="5.6"/>
<feComposite in2="hardAlpha" operator="out"/>
<feColorMatrix type="matrix" values="0 0 0 0 0 0 0 0 0 0 0 0 0 0 0 0 0 0 0.68 0"/>
<feBlend mode="normal" in2="BackgroundImageFix" result="effect1_dropShadow_363_24"/>
<feBlend mode="normal" in="SourceGraphic" in2="effect1_dropShadow_363_24" result="shape"/>
</filter>
</defs>
</svg>
