<svg width="128" height="73" viewBox="0 0 128 73" fill="none" xmlns="http://www.w3.org/2000/svg">
<path d="M0.5 12.9293V72.1756H14.8043V17.901C14.8043 15.2494 18.0739 14.8627 19.7086 15.0008V58.5034C20.6895 67.4525 28.5637 71.347 32.3782 72.1756H59.7607V41.5167C59.7607 40.1909 57.0361 35.1639 55.6738 32.8162L59.7607 29.0874V15.0008H65.0737V72.1756H79.378V19.5583C79.378 15.2494 82.9201 14.7246 84.6911 15.0008H107.169V23.7014H84.6911V60.5749C86.6528 69.524 93.9548 72.0375 97.3606 72.1756H110.439C118.286 69.8555 121.065 63.4751 121.474 60.5749V36.9593L126.787 23.7014H121.474V0.5H76.1085C74.1468 0.5 68.752 5.47172 66.2998 7.95758V0.5H12.3521C5.81303 0.5 1.72608 8.7862 0.5 12.9293Z" fill="url(#paint0_linear_363_25)" stroke="black"/>
<path d="M45.5588 15.2365H35.3184V54.5594C35.3184 56.8532 36.6837 57.1536 37.3664 57.0171H45.5588V45.9575C45.5588 44.3191 43.6472 43.9095 42.6915 43.9095L38.5953 48.0056V28.3441L45.5588 21.7903V15.2365Z" fill="black" stroke="black"/>
<path d="M107.408 38.1752H100.035V55.379C103.312 58.9836 106.316 56.8809 107.408 55.379V38.1752Z" fill="black" stroke="black"/>
<defs>
<linearGradient id="paint0_linear_363_25" x1="63.6433" y1="0.5" x2="63.6433" y2="72.1756" gradientUnits="userSpaceOnUse">
<stop stop-color="white"/>
<stop offset="1" stop-color="#999999"/>
</linearGradient>
</defs>
</svg>
