<svg width="500" height="500" viewBox="0 0 500 500" fill="none" xmlns="http://www.w3.org/2000/svg">
<rect width="500" height="500" rx="110" fill="#436790"/>
<path d="M250.5 412C347.426 412 426 337.903 426 246.5C426 155.097 347.426 81 250.5 81C153.574 81 75 155.097 75 246.5C75 337.903 153.574 412 250.5 412Z" fill="white"/>
<path d="M270.151 115C309.111 115 354 146.138 354 183.265C354 240.751 286.667 274.285 276.503 326.98C275.233 334.964 270.151 341.352 262.528 343.747C259.988 344.945 257.447 345.743 254.482 345.743C235.426 345.743 230.344 322.988 230.344 308.617C230.344 249.933 298.101 208.016 298.101 179.273C298.101 165.3 279.891 160.111 267.187 160.111C225.262 160.111 201.547 209.213 201.547 242.747C201.547 255.921 210.44 267.099 210.44 279.075C210.44 288.257 200.277 295.842 190.113 295.842C160.893 295.842 152 254.723 152 233.166C152 168.893 201.124 115 270.151 115ZM249.401 418C234.579 418 220.604 408.02 220.604 394.047C220.604 379.277 233.308 366.502 248.554 366.502C263.375 366.502 276.503 377.281 276.503 391.652C276.503 406.822 265.916 418 249.401 418Z" fill="#1E1E1E"/>
</svg>
