<svg width="500" height="500" viewBox="0 0 500 500" fill="none" xmlns="http://www.w3.org/2000/svg">
<rect width="500" height="500" rx="110" fill="black"/>
<g filter="url(#filter0_d_392_128)">
<path d="M259.92 332.5C249.989 338.345 241.226 339.075 233.631 334.692C226.036 330.309 222.239 322.272 222.239 310.584V442.083L184.119 464V139.634L316.881 62.9261C326.812 57.0817 335.575 56.3511 343.17 60.7345C351.057 65.1178 355 73.1539 355 84.8427V233.876C355 241.474 353.101 249.656 349.304 258.422C345.799 267.189 341.125 275.371 335.283 282.969C329.733 290.274 323.599 295.827 316.881 299.625L259.92 332.5ZM316.881 106.759L222.239 161.551V310.584L316.881 255.792V106.759ZM222.239 310.584C222.239 322.272 226.036 330.309 233.631 334.692L195.512 312.775C187.917 308.392 184.119 300.356 184.119 288.667L222.239 310.584ZM316.881 106.759V255.792L278.761 233.876V84.8427L316.881 106.759ZM316.881 255.792L222.239 310.584L184.119 288.667L278.761 233.876L316.881 255.792ZM343.608 60.7345C335.721 56.3511 326.812 57.0817 316.881 62.9261L184.119 139.634L146 117.718L278.761 41.0095C288.985 35.1651 297.893 34.4345 305.488 38.8179L343.608 60.7345ZM184.119 139.634V464L146 442.083V117.718L184.119 139.634Z" fill="white"/>
</g>
<defs>
<filter id="filter0_d_392_128" x="121.1" y="11.1" width="258.8" height="477.8" filterUnits="userSpaceOnUse" color-interpolation-filters="sRGB">
<feFlood flood-opacity="0" result="BackgroundImageFix"/>
<feColorMatrix in="SourceAlpha" type="matrix" values="0 0 0 0 0 0 0 0 0 0 0 0 0 0 0 0 0 0 127 0" result="hardAlpha"/>
<feOffset/>
<feGaussianBlur stdDeviation="12.45"/>
<feComposite in2="hardAlpha" operator="out"/>
<feColorMatrix type="matrix" values="0 0 0 0 0 0 0 0 0 0 0 0 0 0 0 0 0 0 0.46 0"/>
<feBlend mode="normal" in2="BackgroundImageFix" result="effect1_dropShadow_392_128"/>
<feBlend mode="normal" in="SourceGraphic" in2="effect1_dropShadow_392_128" result="shape"/>
</filter>
</defs>
</svg>
